<svg xmlns="http://www.w3.org/2000/svg" viewBox="0 0 24 24">
  <path fill="#4285F4" d="M23.49 12.27c0-.79-.07-1.54-.2-2.27H12v4.51h6.45a5.52 5.52 0 0 1-2.39 3.62v2.94h3.88c2.27-2.09 3.55-5.17 3.55-8.8Z"/>
  <path fill="#34A853" d="M12 24c3.24 0 5.96-1.07 7.94-2.93l-3.88-2.94c-1.07.72-2.45 1.15-4.06 1.15-3.13 0-5.78-2.11-6.73-4.95H1.26v3.03A12 12 0 0 0 12 24Z"/>
  <path fill="#FBBC05" d="M5.27 14.33A7.22 7.22 0 0 1 4.89 12c0-.81.14-1.6.38-2.33V6.64H1.26A12 12 0 0 0 0 12c0 1.94.46 3.78 1.26 5.36l4.01-3.03Z"/>
  <path fill="#EA4335" d="M12 4.72c1.76 0 3.34.61 4.58 1.79l3.44-3.44A11.55 11.55 0 0 0 12 0 12 12 0 0 0 1.26 6.64l4.01 3.03C6.22 6.83 8.87 4.72 12 4.72Z"/>
</svg>
